# xmcd
#
# Track frame offsets: 
#        150
#        20164
#        33152
#        52579
#        64253
#        81743
#        93559
#        111598
#        133856
#
# Disc length: 1837 seconds
#
# Revision: 2
# Processed by: cddbd v1.5PL3 Copyright (c) Steve Scherf et al.
# Submitted via: ExactAudioCopy v0.95a5
#
DISCID=7f072b09
DTITLE=Lambchop - Nashville Does Dallas
DYEAR=2004
DGENRE=Alt. Country
TTITLE0=Jan 17B
TTITLE1=Where Or When
TTITLE2=Under A Dream Of A Lie
TTITLE3=Every Waking Moment
TTITLE4=(Get A) Grip (On Yourself)
TTITLE5=Jan 14
TTITLE6=Christian Rock
TTITLE7=The Puppy And The Leaf
TTITLE8=Theme From The Television Show 'Dallas'
EXTD=
EXTT0=
EXTT1=
EXTT2=
EXTT3=
EXTT4=
EXTT5=
EXTT6=
EXTT7=
EXTT8=
PLAYORDER=
